<svg width="58" height="58" viewBox="0 0 58 58" fill="none" xmlns="http://www.w3.org/2000/svg">
<rect width="58" height="58" rx="29" fill="#23334A"/>
<rect x="5.5" y="5.5" width="47" height="47" rx="23.5" stroke="white"/>
<path d="M14.1465 39C13.5371 39 13.3382 38.7207 13.5498 38.1621L19.7705 21.8232C20.0329 21.1377 20.4307 20.7949 20.9639 20.7949H22.7412C23.2744 20.7949 23.6722 21.1377 23.9346 21.8232L30.1553 38.1621C30.3669 38.7207 30.168 39 29.5586 39H27.54C26.9814 39 26.5921 38.708 26.3721 38.124L25.0771 34.709H18.6279L17.333 38.124C17.113 38.708 16.7236 39 16.165 39H14.1465ZM19.8086 31.5605H23.8965L22.335 27.5234C22.1488 27.0495 22.0345 26.7067 21.9922 26.4951C21.9583 26.2751 21.9202 25.9535 21.8779 25.5303H21.8271C21.7848 25.9535 21.7425 26.2751 21.7002 26.4951C21.6663 26.7067 21.5563 27.0495 21.3701 27.5234L19.8086 31.5605ZM33.3037 39C32.7113 39 32.415 38.6826 32.415 38.0479V21.7471C32.415 21.1123 32.7113 20.7949 33.3037 20.7949H43.3457C43.9805 20.7949 44.2979 21.07 44.2979 21.6201V23.1182C44.2979 23.6683 43.9805 23.9434 43.3457 23.9434H36.1221V28.3613H42.3047C42.9395 28.3613 43.2568 28.6364 43.2568 29.1865V30.6846C43.2568 31.2347 42.9395 31.5098 42.3047 31.5098H36.1221V38.0479C36.1221 38.6826 35.8258 39 35.2334 39H33.3037Z" fill="white"/>
</svg>
